<svg id="Layer_1" xmlns="http://www.w3.org/2000/svg" xmlns:xlink="http://www.w3.org/1999/xlink" viewBox="0 0 600 600">
  <style>
    .st2{fill:#fff}
  </style>
  <defs>
    <path id="SVGID_1_" d="M0 0h600v600H0z"/>
  </defs>
  <clipPath id="SVGID_2_">
    <use xlink:href="#SVGID_1_" overflow="visible"/>
  </clipPath>
  <g clip-path="url(#SVGID_2_)">
    <path d="M300 572c-72.7 0-141-28.3-192.3-79.7S28 372.7 28 300c0-72.7 28.3-141 79.7-192.3S227.3 28 300 28c72.7 0 141 28.3 192.3 79.7S572 227.3 572 300c0 72.7-28.3 141-79.7 192.3S372.7 572 300 572" fill="#9ab0b7"/>
    <path class="st2" d="M78.6 327.2c-1.4-.3-1.3-2.3.1-2.5 12.5-1.7 42.6-2.8 81.7 15.7 52 24.5 136 79.2 185.7 76.3 42.1-2.5 62.5-18.3 60.3-37.8-1.8-15.2-18.8-25.2-31.8-20.2s-18.8 16.8-17.8 27.8c-11-8.5-7-25-3.5-29.5s22.7-30.7 55.5-8c27.5 19 15.9 56 0 70-10.5 9.2-42 32.5-101.5 17.5S183.7 367.2 149.8 351c-31.1-15-44.5-18.2-71.2-23.8"/>
    <path class="st2" d="M168.1 320.6c-1-.5-.4-2 .7-1.7 22.2 6.8 78.8 19.6 119.6 9 59.7-15.5 70.5-51 130-79.8 38-18.4 87.5-5.2 101 31.8s-21.7 62.5-49.5 61c-23-1.2-38.5-14.4-41.5-25-3.3-11.8 1.3-27.1 15-31.5-4 18 5.8 37.7 26 36.5 20-1.2 37.7-26.2 19-45-18.7-18.8-42-15.2-56-6.5-14.9 9.2-50 44-80 58.5-28.8 13.9-71 29.1-114.6 17.5-37.1-9.9-48.5-13.2-69.7-24.8"/>
    <path class="st2" d="M111.7 286.8c-1.3-.5-.9-2.4.5-2.3 17.1.7 65-.1 90.2-28.1 31-34.5 23.9-58 51.5-83 19.2-17.4 63.3-23 94.2 3.5 34.5 29.5 16.2 87.1-18.1 104.8-29 15-65.4 10.2-73.7-13.3-9.2-26.2 9.8-49.2 29-49 20.3.3 17.5 20.5 17.5 20.5s-6-10.5-14.2-9.2c-10.5 1.6-19.7 14.7-14.2 27.8 6.8 16.2 35.8 23.4 56.7-1.3 21.5-25.5 16.8-60.2-18.7-72.7-32.8-11.6-52 12.6-69.5 45-13.8 25.5-29.2 58-76.5 60.7-34.7 1.9-48.1-.8-54.7-3.4"/>
  </g>
</svg>