<svg id="Layer_1" xmlns="http://www.w3.org/2000/svg" xmlns:xlink="http://www.w3.org/1999/xlink" viewBox="0 0 600 600">
  <style>
  </style>
  <defs>
    <path id="SVGID_19_" d="M0 0h600v600H0z"/>
  </defs>
  <clipPath id="SVGID_2_">
    <use xlink:href="#SVGID_19_" overflow="visible"/>
  </clipPath>
  <g clip-path="url(#SVGID_2_)">
    <defs>
      <path id="SVGID_21_" d="M0 0h600v600H0z"/>
    </defs>
    <clipPath id="SVGID_4_">
      <use xlink:href="#SVGID_21_" overflow="visible"/>
    </clipPath>
    <path d="M300 572c-72.7 0-141-28.3-192.3-79.7S28 372.7 28 300s28.3-141 79.7-192.3S227.3 28 300 28s141 28.3 192.3 79.7S572 227.3 572 300s-28.3 141-79.7 192.3S372.7 572 300 572" clip-path="url(#SVGID_4_)" fill="#1f2c35"/>
    <path d="M345.8 142.2c-15.9 0-31.3 2.4-45.8 6.8-14.5-4.4-29.9-6.8-45.8-6.8-87 0-157.8 70.8-157.8 157.8 0 87 70.8 157.8 157.8 157.8 15.9 0 31.3-2.4 45.8-6.8 14.5 4.4 29.9 6.8 45.8 6.8 87 0 157.8-70.8 157.8-157.8 0-87-70.8-157.8-157.8-157.8M300 438.4c-6.4 2.1-13 3.8-19.8 5.1-8.4 1.5-17.1 2.3-26 2.3-80.4 0-145.8-65.4-145.8-145.8s65.4-145.8 145.8-145.8c8.9 0 17.6.8 26 2.3 6.8 1.2 13.4 2.9 19.8 5.1 6 2 11.9 4.4 17.5 7.1C366.3 192.3 400 242.3 400 300c0 57.7-33.7 107.7-82.4 131.3-5.7 2.7-11.6 5.1-17.6 7.1m45.8 7.4c-8.9 0-17.6-.8-26-2.3 6.1-2.8 11.9-5.9 17.5-9.4 1.8-1.1 3.5-2.3 5.3-3.5 73.1-1.2 132-59.2 132-130.6 0-71.4-58.9-129.4-132-130.6-1.7-1.2-3.5-2.3-5.3-3.5-5.6-3.5-11.5-6.7-17.5-9.4 8.4-1.5 17.1-2.3 26-2.3 80.4 0 145.8 65.4 145.8 145.8s-65.4 145.8-145.8 145.8" clip-path="url(#SVGID_4_)" fill="#fff"/>
  </g>
</svg>