<svg id="Layer_1" xmlns="http://www.w3.org/2000/svg" xmlns:xlink="http://www.w3.org/1999/xlink" viewBox="0 0 600 600">
  <style>
  </style>
  <defs>
    <path id="SVGID_7_" d="M0 0h600v600H0z"/>
  </defs>
  <clipPath id="SVGID_2_">
    <use xlink:href="#SVGID_7_" overflow="visible"/>
  </clipPath>
  <g clip-path="url(#SVGID_2_)">
    <defs>
      <path id="SVGID_9_" d="M0 0h600v600H0z"/>
    </defs>
    <clipPath id="SVGID_4_">
      <use xlink:href="#SVGID_9_" overflow="visible"/>
    </clipPath>
    <path d="M300 572c-72.7 0-141-28.3-192.3-79.7S28 372.7 28 300c0-72.7 28.3-141 79.7-192.3S227.3 28 300 28s141 28.3 192.3 79.7S572 227.3 572 300c0 72.7-28.3 141-79.7 192.3S372.7 572 300 572" clip-path="url(#SVGID_4_)" fill="#e15426"/>
    <path d="M386.1 230.1c-42.5-34.5-58.5-99.5-47-143.5-25.5 2.5-66.3 25.3-83.5 89.5-22 82 44 140.5 0 170.5-51.4 35.1-86.5-26-82-82.5-30 23.5-48.4 119.6-9.5 178 28 42 63.8 66.1 109.5 71.4-14.7-10.4-15.7-29.9-10.5-44.9 7.5-21.5 32.2-31.1 55.5-49 26-20 37-40 38.5-49.5 13 19.5 28.6 48.3 15.5 91-6 19.6-17 38.3-34.3 49.5 55-14.2 119.7-61.9 119.8-146 .1-75-37.9-106.8-72-134.5" clip-path="url(#SVGID_4_)" fill="#fff"/>
  </g>
</svg>