<svg id="Layer_1" xmlns="http://www.w3.org/2000/svg" xmlns:xlink="http://www.w3.org/1999/xlink" viewBox="0 0 600 600">
  <style>
  </style>
  <defs>
    <path id="SVGID_3_" d="M0 0h600v600H0z"/>
  </defs>
  <clipPath id="SVGID_2_">
    <use xlink:href="#SVGID_3_" overflow="visible"/>
  </clipPath>
  <g clip-path="url(#SVGID_2_)">
    <defs>
      <path id="SVGID_5_" d="M0 0h600v600H0z"/>
    </defs>
    <clipPath id="SVGID_4_">
      <use xlink:href="#SVGID_5_" overflow="visible"/>
    </clipPath>
    <path d="M300 572c-72.7 0-141-28.3-192.3-79.7S28 372.7 28 300c0-72.7 28.3-141 79.7-192.3S227.3 28 300 28c72.7 0 141 28.3 192.3 79.7S572 227.3 572 300c0 72.7-28.3 141-79.7 192.3S372.7 572 300 572" clip-path="url(#SVGID_4_)" fill="#1ac2ec"/>
    <path d="M482.7 346.2l-38.1 28-30.6-18.5 49.5-34.7c3.2-2.2 3.9-6.6 1.7-9.8-2.2-3.2-6.6-3.9-9.8-1.7l-54.6 38.2-49.1-29.7v-35.9l49.1-29.8 54.6 38.2c1.2.9 2.6 1.3 4 1.3 2.2 0 4.4-1 5.7-3 2.2-3.2 1.4-7.5-1.7-9.7L414 244.4l30.6-18.5 38.1 28c1.2.9 2.7 1.4 4.1 1.4 2.2 0 4.3-1 5.6-2.9 2.3-3.1 1.6-7.5-1.5-9.8L457.4 218l29.3-17.8c3.3-1.9 4.5-6.2 2.6-9.6-1.9-3.3-6.2-4.5-9.6-2.6l-30.1 16.5-4.5-41.2c-.4-3.8-3.9-6.6-7.7-6.2-3.8.4-6.6 3.9-6.2 7.7l5.2 46.9-31.3 17.2-5.3-60.1c-.3-3.9-3.7-6.7-7.6-6.4-3.9.3-6.7 3.7-6.4 7.6l5.8 66.2-50.6 27.7-30.7-17.7-1.3-57.7 60.3-28.1c3.5-1.6 5-5.8 3.4-9.3-1.6-3.5-5.8-5-9.3-3.4l-54.7 25.5-.8-35.7 43.3-19c3.5-1.6 5.1-5.7 3.6-9.2-1.6-3.5-5.7-5.1-9.2-3.6l-38 16.7-.6-34.2c0-3.9-3.1-7-7-7s-7 3.1-7 7l-.7 34.3-38-16.7c-3.5-1.6-7.7.1-9.2 3.6-1.6 3.5.1 7.7 3.6 9.2l43.3 19-.8 35.7-54.7-25.5c-3.5-1.6-7.7-.1-9.3 3.4-1.6 3.5-.1 7.7 3.4 9.3l60.3 28.1-1.3 57.7-30.7 17.7-50.6-27.7 5.8-66.2c.3-3.9-2.5-7.2-6.4-7.6-3.9-.3-7.2 2.5-7.6 6.4l-5.3 60.1-31.3-17.2 5.2-46.9c.4-3.8-2.4-7.3-6.2-7.7-3.8-.4-7.3 2.3-7.7 6.2l-4.5 41.2-30.1-16.5c-3.3-1.9-7.6-.8-9.6 2.6-1.9 3.3-.8 7.6 2.6 9.6l29.3 17.8-33.5 24.6c-3.1 2.3-3.8 6.7-1.5 9.8 1.4 1.9 3.5 2.9 5.6 2.9 1.4 0 2.9-.4 4.1-1.4l38.1-28 30.6 18.5-49.5 34.7c-3.2 2.2-3.9 6.6-1.7 9.7 1.4 1.9 3.5 3 5.7 3 1.4 0 2.8-.4 4-1.3l54.6-38.2 49.1 29.8v35.5l-49.3 30-54.4-38.1c-3.2-2.2-7.5-1.4-9.7 1.7-2.2 3.2-1.4 7.5 1.7 9.7l49.3 34.6-30.5 18.6-38.1-27.9c-3.1-2.3-7.5-1.6-9.8 1.5-2.3 3.1-1.6 7.5 1.5 9.8l33.4 24.5-29.3 17.8c-3.3 1.9-4.5 6.2-2.6 9.6 1.3 2.2 3.6 3.5 6.1 3.5 1.2 0 2.4-.3 3.5-.9l30.1-16.5 4.5 41.3c.4 3.6 3.4 6.2 6.9 6.2h.8c3.8-.4 6.6-3.9 6.2-7.7l-5.2-47 31.3-17.2 5.3 60.2c.3 3.6 3.4 6.4 7 6.4h.6c3.9-.3 6.7-3.7 6.4-7.6l-5.8-66.4 50.3-27.7 30.9 17.8 1.3 57.6-60.2 28.1c-3.5 1.6-5 5.8-3.4 9.3 1.2 2.5 3.7 4 6.3 4 1 0 2-.2 3-.7l54.7-25.5.8 35.7-43.2 19c-3.5 1.6-5.1 5.7-3.6 9.2 1.2 2.6 3.7 4.2 6.4 4.2.9 0 1.9-.2 2.8-.6l37.9-16.7.8 34.3c0 3.9 3.1 7 7 7s7-3.1 7-7l.7-34.3 38 16.7c.9.4 1.9.6 2.8.6 2.7 0 5.3-1.6 6.4-4.2 1.6-3.5-.1-7.7-3.6-9.2l-43.3-19 .8-35.7 54.8 25.5c1 .4 2 .7 3 .7 2.6 0 5.2-1.5 6.4-4 1.6-3.5.1-7.7-3.4-9.3L309 411.5l1.2-57.5 30.8-17.8 50.6 27.7-5.8 66.2c-.3 3.9 2.5 7.2 6.4 7.6h.6c3.6 0 6.6-2.7 7-6.4l5.3-60.1 31.3 17.2-5.2 46.9c-.4 3.8 2.4 7.3 6.2 7.7h.8c3.5 0 6.6-2.7 6.9-6.2l4.5-41.2 30.1 16.5c1.1.6 2.3.9 3.5.9 2.4 0 4.8-1.3 6.1-3.5 1.9-3.3.8-7.6-2.6-9.6l-29.3-17.8 33.5-24.6c3.1-2.3 3.8-6.7 1.5-9.8-2.2-3.1-6.6-3.7-9.7-1.5M300 343.6l-37.7-21.8v-43.6l37.7-21.8 37.7 21.8v43.6L300 343.6z" clip-path="url(#SVGID_4_)" fill="#fff"/>
  </g>
</svg>