<svg id="Layer_1" xmlns="http://www.w3.org/2000/svg" xmlns:xlink="http://www.w3.org/1999/xlink" viewBox="0 0 600 600">
  <style>
  </style>
  <defs>
    <path id="SVGID_15_" d="M0 0h600v600H0z"/>
  </defs>
  <clipPath id="SVGID_2_">
    <use xlink:href="#SVGID_15_" overflow="visible"/>
  </clipPath>
  <g clip-path="url(#SVGID_2_)">
    <defs>
      <path id="SVGID_17_" d="M0 0h600v600H0z"/>
    </defs>
    <clipPath id="SVGID_4_">
      <use xlink:href="#SVGID_17_" overflow="visible"/>
    </clipPath>
    <path d="M300 572c-72.7 0-141-28.3-192.3-79.7S28 372.7 28 300s28.3-141 79.7-192.3S227.3 28 300 28c72.7 0 141 28.3 192.3 79.7S572 227.3 572 300s-28.3 141-79.7 192.3S372.7 572 300 572" clip-path="url(#SVGID_4_)" fill="#eeac1f"/>
    <path d="M519 294.6l-93.2-46.8 32.8-98.9c.7-2.2.2-4.5-1.5-6.1-1.6-1.6-4-2.2-6.1-1.5l-98.9 32.8L305.4 81c-1-2-3.1-3.3-5.4-3.3-2.3 0-4.3 1.3-5.4 3.3l-46.8 93.2-98.9-32.8c-2.2-.7-4.5-.2-6.1 1.5-1.6 1.6-2.2 4-1.5 6.1l32.8 98.9L81 294.6c-2 1-3.3 3.1-3.3 5.4 0 2.3 1.3 4.3 3.3 5.4l93.2 46.8-32.8 98.9c-.7 2.2-.2 4.5 1.5 6.1 1.6 1.6 4 2.2 6.1 1.5l98.9-32.8 46.8 93.2c1 2 3.1 3.3 5.4 3.3 2.3 0 4.3-1.3 5.4-3.3l46.8-93.2 98.9 32.8c.6.2 1.3.3 1.9.3 1.6 0 3.1-.6 4.2-1.8 1.6-1.6 2.2-4 1.5-6.1L426 352.2l93.2-46.8c2-1 3.3-3.1 3.3-5.4-.2-2.3-1.5-4.3-3.5-5.4m-89.8-123.7l-17.9 69.7-25.7-12.9 10-23.3-23.3 10-12.9-25.6 69.8-17.9zm-101.7 62.6l-13.3-33.2 30.3-7.8 15.9 26.9-32.9 14.1zm-55 0l-32.9-14.1 15.9-26.9 30.3 7.8-13.3 33.2zm-39 39l-33.2 13.3-7.8-30.3 26.9-15.9 14.1 32.9zm0 55l-14.1 32.9-26.9-15.9 7.8-30.3 33.2 13.3zm39 39l13.3 33.2-30.3 7.8-15.9-26.9 32.9-14.1zm55 0l32.9 14.1-15.9 26.9-30.3-7.8 13.3-33.2zm39-39l33.2-13.3 7.8 30.3-26.9 15.9-14.1-32.9zm0-55l14.1-32.9 26.9 15.9-7.8 30.3-33.2-13.3zm-66.4-155.1l36.6 61.9-27.3 9-9.4-23.5-9.4 23.5-27.2-9 36.7-61.9zm-129.2 53.5l69.7 17.9-12.9 25.7-23.3-10 10 23.3-25.6 12.9-17.9-69.8zM117.4 300l61.9-36.6 9 27.2-23.5 9.4 23.5 9.4-9 27.2-61.9-36.6zm53.5 129.1l17.8-69.7 25.6 12.9-10 23.3 23.3-10 12.9 25.7-69.6 17.8zm129.2 53.5l-36.7-62 27.2-9 9.4 23.5 9.4-23.5 27.3 9-36.6 62zm129.1-53.5l-69.8-17.9 12.9-25.6 23.3 10-10-23.3 25.7-12.9 17.9 69.7zm-8.5-92.4l-9-27.3 23.5-9.4-23.5-9.4 9-27.3 62 36.7-62 36.7z" clip-path="url(#SVGID_4_)" fill="#fff"/>
  </g>
</svg>