<?xml version="1.0" encoding="UTF-8"?>
<!-- Generator: Adobe Illustrator 23.0.1, SVG Export Plug-In . SVG Version: 6.00 Build 0)  -->
<svg version="1.1" xmlns="http://www.w3.org/2000/svg" xmlns:xlink="http://www.w3.org/1999/xlink" x="0px" y="0px" viewBox="0 0 500 500" style="enable-background:new 0 0 500 500;" xml:space="preserve">
<style type="text/css">
	.st0{fill:#FFFFFF;}
	.st1{fill:#EEC91A;}
</style>
<g id="None_-_4-Player">
</g>
<g id="None_-_3-Player">
</g>
<g id="None_-_2-Player">
</g>
<g id="Normal_-_4-Player">
	<g>
		<polygon class="st0" points="158.2,417.8 158.2,431 250,484 341.8,431 341.8,417.7 250,401.9   "/>
		<polygon class="st0" points="166.2,424.5 166.2,435.6 250,484 333.8,435.6 333.8,424.5 250,410   "/>
	</g>
</g>
<g id="Normal_-_3-Player">
	<g>
		<polygon class="st0" points="441.2,245.6 452.6,239 452.6,133 360.8,80 349.3,86.6 381.5,174.1   "/>
		<polygon class="st0" points="443.1,235.3 452.6,229.8 452.6,133 368.8,84.6 359.2,90.2 388.6,170   "/>
	</g>
</g>
<g id="Normal_-_2-Player">
	<g>
		<polygon class="st0" points="150.6,86.6 139.2,80 47.4,133 47.4,239 58.8,245.7 118.5,174.1   "/>
		<polygon class="st0" points="140.8,90.1 131.2,84.6 47.4,133 47.4,229.8 57,235.4 111.4,170   "/>
	</g>
</g>
<g id="Elite_-_4-Player">
</g>
<g id="Elite_-_3-Player">
</g>
<g id="Elite_-_2-Player">
</g>
</svg>